<svg xmlns="http://www.w3.org/2000/svg" width="184.648" height="92.816" viewBox="0 0 184.648 92.816"><defs><style>.a{fill:#f7f9f9;}.b{opacity:0.65;}</style></defs><g transform="translate(-308.517 -1151)"><path class="a" d="M52.139,47.541h7.733c2.46,0,3.991,1.154,5.717,3.426l12.735,20.47h.1v-23.9h3.8a3.455,3.455,0,0,1,3.538,3.538v32.08H82.881c-3.448,0-5.031-.723-7.159-3.542l-12.616-20.3h-.1V83.159h-3.8a3.454,3.454,0,0,1-3.538-3.536V51.079a3.514,3.514,0,0,0-3.535-3.538" transform="translate(323.273 1114.09)"/><path class="a" d="M70.588,47.541H99.75a3.509,3.509,0,0,1,3.535,3.538V54.67H92.609V83.159H88.315a3.424,3.424,0,0,1-3.538-3.536V54.67H77.639A3.476,3.476,0,0,1,74.1,51.079a3.492,3.492,0,0,0-3.515-3.538" transform="translate(346.238 1114.09)"/><path class="a" d="M42.99,75V51.253h4.3a3.469,3.469,0,0,1,3.535,3.535v23.75H46.528A3.51,3.51,0,0,1,42.99,75" transform="translate(311.886 1118.71)"/><path class="a" d="M25.876,51.079V79.623a3.468,3.468,0,0,0,3.535,3.536h4.3V70.04h0l9.821,10c2.909,2.84,4.685,3.122,7.136,3.122h5.708L38.433,65.351l17.942-17.81H46.6L33.71,60.662l0,0-.031-9.581a3.56,3.56,0,0,0-3.535-3.538h-7.8a3.667,3.667,0,0,1,3.538,3.538" transform="translate(286.179 1114.09)"/><path class="a" d="M106.631,47.163a18.657,18.657,0,1,0,18.654,18.658,18.659,18.659,0,0,0-18.654-18.658m0,30.163a11.505,11.505,0,1,1,11.5-11.5A11.5,11.5,0,0,1,106.631,77.326Z" transform="translate(367.879 1113.619)"/><path class="a" d="M53.994,49.905a3.5,3.5,0,0,0-4.117,0,4.246,4.246,0,0,0-1.116,5.722c1.055,1.89,3.046,2.546,5.325,2.341a8.224,8.224,0,0,0,5.843-3.286,7.515,7.515,0,0,0-.058-8.449,7.322,7.322,0,0,0-6.5-3.423c-2.7,0-4.561,2.029-5.852,3.556-2,2.37-2.916,2.893-4.64,3.039a5.409,5.409,0,0,1-4.115-1.407,14.063,14.063,0,0,1-1.235-1.425,11.161,11.161,0,0,0,2.249,2.862,5.884,5.884,0,0,0,5.816.889c2.718-.981,4.209-2.658,5.118-3.176a3.392,3.392,0,0,1,4.912,1.7,4.294,4.294,0,0,1-.572,3.7,2.6,2.6,0,0,0-1.062-2.638" transform="translate(305.093 1108.195)"/><g class="b" transform="translate(347.629 1214.45)"><path class="a" d="M39.762,99.328l.884-4.707a8.706,8.706,0,0,0,3.3.725c2.777,0,4.505-1.933,4.505-6.2v-17.9h5.47V89.795c0,6.676-3.459,10.418-9.129,10.418A14.933,14.933,0,0,1,39.762,99.328Z" transform="translate(-39.762 -70.847)"/><path class="a" d="M50.077,85.754c0-8.77,6.4-14.683,14.966-14.683,8.609,0,15,5.953,15,14.6,0,8.689-6.4,14.764-15.044,14.764C56.515,100.437,50.077,94.524,50.077,85.754Zm24.3,0c0-5.551-3.861-9.534-9.331-9.534-5.432,0-9.293,3.982-9.293,9.534s3.861,9.533,9.293,9.533C70.513,95.287,74.374,91.305,74.374,85.754Z" transform="translate(-26.922 -71.071)"/><path class="a" d="M67.636,71.251h5.43v28.56h-5.43Z" transform="translate(-5.066 -70.847)"/><path class="a" d="M99.444,71.251v28.56h-5.19L80.135,79.577V99.811h-5.19V71.251h5.23L94.254,91.443V71.251Z" transform="translate(4.032 -70.847)"/></g></g></svg>